<?xml version="1.0" standalone="no"?>
<!DOCTYPE svg PUBLIC "-//W3C//DTD SVG 20010904//EN"
 "http://www.w3.org/TR/2001/REC-SVG-20010904/DTD/svg10.dtd">
<svg version="1.0" xmlns="http://www.w3.org/2000/svg"
 width="1472.000000pt" height="832.000000pt" viewBox="0 0 1472.000000 832.000000"
 preserveAspectRatio="xMidYMid meet">

<g transform="translate(0.000000,832.000000) scale(0.100000,-0.100000)"
fill="#000000" stroke="none">
<path d="M0 4160 l0 -4160 7360 0 7360 0 0 4160 0 4160 -7360 0 -7360 0 0
-4160z m5655 2041 c54 -24 78 -55 154 -196 36 -66 118 -217 184 -335 66 -118
160 -289 209 -380 50 -91 144 -262 209 -380 65 -119 119 -221 119 -227 0 -23
-214 -470 -237 -495 -10 -11 -30 -18 -53 -18 -32 0 -41 5 -64 40 -14 22 -26
42 -26 45 0 6 -402 774 -450 860 -42 75 -462 869 -502 950 -50 100 -53 110
-29 134 20 20 32 21 234 21 184 0 217 -3 252 -19z m2086 9 c33 -18 22 -57 -65
-219 -130 -244 -174 -328 -311 -596 -70 -137 -152 -296 -181 -352 l-53 -102
87 -170 c48 -94 90 -171 93 -171 4 0 13 15 20 33 7 17 92 185 187 372 493 965
482 945 542 977 30 16 61 18 250 18 179 0 219 -3 238 -16 30 -21 28 -67 -4
-124 -15 -25 -56 -101 -91 -170 -186 -355 -333 -639 -443 -855 -285 -557 -366
-716 -425 -825 -34 -63 -92 -176 -129 -250 -78 -153 -98 -180 -137 -180 -39 0
-62 29 -148 190 -98 184 -315 589 -351 655 -107 197 -226 417 -275 510 -32 61
-70 133 -85 160 -15 28 -83 154 -150 280 -68 127 -159 295 -202 375 -91 166
-101 197 -68 230 21 21 26 21 260 18 l238 -3 42 -30 c45 -32 50 -40 165 -265
41 -80 80 -153 87 -163 16 -21 27 -3 218 363 126 240 145 269 195 297 38 22
51 23 258 23 132 0 226 -4 238 -10z m1641 -7 c10 -9 18 -25 18 -35 0 -10 -57
-128 -126 -261 -126 -241 -523 -1016 -752 -1470 -67 -131 -126 -245 -133 -253
-6 -8 -26 -14 -45 -14 -43 0 -50 10 -184 282 l-111 224 152 284 c83 157 204
384 269 505 65 121 170 321 235 445 64 124 128 238 143 254 48 51 69 55 301
56 186 0 217 -2 233 -17z m-4536 -3352 c180 -82 222 -314 80 -439 -56 -49 -95
-65 -171 -70 -64 -4 -75 -1 -135 30 -184 95 -197 341 -25 460 47 32 59 35 145
36 44 1 78 -4 106 -17z m2850 -9 c63 -32 69 -44 35 -76 l-29 -28 -47 27 c-39
23 -53 27 -92 21 -148 -20 -208 -223 -94 -319 59 -49 136 -55 193 -16 14 11
30 19 35 19 11 0 63 -53 63 -64 0 -4 -30 -21 -66 -38 -58 -27 -73 -30 -132
-26 -107 8 -190 65 -230 157 -24 57 -21 167 7 223 27 56 87 111 145 132 56 21
159 15 212 -12z m467 4 c90 -44 147 -137 147 -240 0 -76 -16 -118 -62 -171
-192 -218 -544 -28 -463 250 20 69 90 144 157 169 57 21 170 16 221 -8z m1377
14 c19 -5 48 -20 64 -33 24 -20 27 -26 18 -44 -18 -32 -42 -36 -87 -12 -49 26
-87 21 -111 -17 -26 -40 -7 -67 78 -110 103 -51 148 -98 148 -154 0 -22 -25
-76 -44 -96 -23 -23 -78 -45 -125 -51 -80 -9 -181 47 -181 102 0 14 8 29 20
35 16 8 28 4 65 -25 49 -37 85 -44 130 -23 14 6 28 22 32 35 11 46 -12 72 -99
113 -92 43 -119 71 -125 134 -6 57 22 105 77 134 48 24 86 27 140 12z m812 -6
c62 -21 84 -45 66 -73 -19 -31 -39 -33 -83 -11 -47 24 -57 25 -95 5 -23 -12
-30 -23 -30 -44 0 -34 15 -48 108 -96 92 -48 122 -82 122 -139 0 -82 -65 -143
-162 -153 -45 -4 -61 -1 -108 24 -68 36 -86 72 -53 105 l22 21 36 -31 c19 -18
47 -35 61 -38 40 -10 87 8 102 39 20 41 -4 70 -95 114 -94 46 -123 83 -123
154 0 107 110 165 232 123z m-5062 -165 c118 -148 136 -167 142 -147 3 13 6
89 7 171 l1 147 40 0 40 0 0 -255 0 -255 -35 0 c-32 0 -42 9 -172 171 l-138
171 -3 -171 -2 -171 -45 0 -45 0 0 255 0 255 38 0 c36 0 41 -5 172 -171z m430
-44 l0 -215 115 0 115 0 0 -40 0 -40 -159 0 -159 0 -7 46 c-7 47 -5 443 2 457
2 4 24 7 49 7 l44 0 0 -215z m380 -40 l0 -255 -45 0 -45 0 0 255 0 255 45 0
45 0 0 -255z m191 223 c13 -18 73 -98 134 -177 l110 -143 3 176 2 176 46 0 45
0 -3 -252 -3 -253 -36 -3 c-36 -3 -37 -2 -170 169 l-134 173 -3 -172 -2 -172
-45 0 -45 0 0 255 0 255 39 0 c33 0 43 -5 62 -32z m759 -8 l0 -39 -117 -3
-118 -3 -3 -62 -3 -63 101 0 101 0 -3 -37 -3 -38 -95 -5 -95 -5 -3 -67 -3 -68
131 0 130 0 0 -40 0 -40 -175 0 -175 0 0 218 c0 119 3 234 6 255 l7 37 158 0
159 0 0 -40z m1430 -117 c-2 -224 -3 -217 25 -247 20 -22 33 -26 78 -26 45 0
58 4 78 26 23 25 24 32 29 212 l5 187 43 3 42 3 0 -188 c-1 -242 -15 -281
-119 -318 -105 -37 -210 0 -259 90 -13 24 -17 68 -20 223 l-4 192 52 0 51 0
-1 -157z m676 138 c110 -50 118 -185 14 -253 l-37 -24 49 -84 c28 -47 56 -92
64 -101 22 -25 17 -29 -36 -29 l-50 0 -61 105 c-59 101 -63 105 -95 105 l-34
0 0 -105 0 -105 -45 0 -45 0 0 255 0 255 118 0 c92 0 126 -4 158 -19z m884
-21 l0 -40 -120 0 -120 0 0 -65 0 -64 103 -3 102 -3 0 -35 0 -35 -102 -3 -103
-3 0 -69 0 -70 119 0 c128 0 131 -1 131 -56 l0 -24 -170 0 -170 0 0 255 0 255
165 0 165 0 0 -40z m-4345 -686 c23 -9 47 -61 39 -87 -28 -94 -154 -84 -154
12 0 61 56 97 115 75z m275 -53 c19 -28 38 -51 43 -51 4 0 7 23 7 50 0 28 5
50 10 50 6 0 10 -32 10 -75 0 -41 -4 -75 -9 -75 -6 0 -29 25 -53 55 l-43 56
-3 -56 c-4 -78 -22 -59 -22 24 0 98 7 101 60 22z m270 -17 l0 -64 35 0 c19 0
35 -4 35 -10 0 -5 -20 -10 -45 -10 l-45 0 0 81 c0 51 4 78 10 74 6 -3 10 -35
10 -71z m250 -5 c0 -51 -4 -78 -10 -74 -18 11 -12 155 7 155 2 0 3 -36 3 -81z
m1034 75 c17 -7 22 -34 6 -34 -5 0 -10 5 -10 10 0 6 -16 10 -35 10 -64 0 -85
-80 -30 -116 21 -14 27 -14 54 1 31 16 41 9 19 -13 -21 -21 -77 -14 -103 13
-65 64 11 163 99 129z m305 -4 c31 -16 46 -65 31 -100 -21 -50 -65 -63 -119
-35 -45 23 -47 99 -4 133 20 14 67 16 92 2z m237 -64 c-3 -10 0 -29 5 -43 7
-19 15 -24 37 -21 26 3 27 6 30 66 4 79 22 82 22 3 0 -41 -5 -65 -16 -75 -20
-20 -68 -21 -84 -1 -16 19 -25 107 -15 132 6 15 9 13 16 -12 5 -16 7 -38 5
-49z m378 58 c22 -21 20 -51 -4 -66 -19 -12 -19 -13 1 -45 26 -41 8 -44 -21
-3 -12 17 -28 30 -36 30 -9 0 -14 -11 -14 -30 0 -16 -4 -30 -10 -30 -6 0 -10
33 -10 80 l0 80 39 0 c23 0 46 -7 55 -16z m273 -1 c3 -7 -8 -11 -29 -10 -43 2
-42 -15 2 -45 40 -27 50 -56 24 -75 -23 -17 -69 -17 -83 1 -16 20 3 30 27 15
21 -13 52 -6 52 11 0 5 -18 21 -40 35 -41 26 -50 51 -28 73 15 15 70 12 75 -5z
m537 11 c27 -11 17 -24 -15 -22 -47 4 -46 -17 0 -47 45 -28 49 -39 24 -67 -19
-22 -52 -23 -79 -4 -24 18 -13 31 14 15 23 -14 52 -6 52 15 0 8 -16 23 -35 35
-33 19 -47 56 -28 74 8 9 46 9 67 1z m-2517 -56 l38 -53 5 49 c3 27 11 51 18
54 14 4 18 -133 3 -142 -5 -4 -30 17 -55 46 l-46 53 0 -53 c0 -28 -4 -52 -10
-52 -6 0 -10 32 -10 75 0 41 4 75 9 75 5 0 27 -24 48 -52z m353 42 c0 -5 -18
-10 -40 -10 -33 0 -40 -3 -40 -20 0 -16 7 -20 35 -20 19 0 35 -4 35 -10 0 -5
-16 -10 -35 -10 -31 0 -35 -3 -35 -25 0 -22 4 -25 40 -25 22 0 40 -4 40 -10 0
-5 -22 -10 -50 -10 l-50 0 0 75 0 75 50 0 c28 0 50 -4 50 -10z m1910 0 c0 -5
-16 -10 -35 -10 -28 0 -35 -4 -35 -20 0 -16 7 -20 30 -20 17 0 30 -4 30 -10 0
-5 -13 -10 -29 -10 -20 0 -30 -6 -34 -19 -6 -26 0 -31 40 -31 18 0 33 -5 33
-11 0 -6 -19 -9 -47 -7 l-48 3 0 50 c-1 90 2 95 51 95 24 0 44 -4 44 -10z
m-3630 -28 c0 -9 -820 -6 -828 3 -3 3 182 5 411 5 230 0 417 -4 417 -8z m5039
4 c-8 -8 -877 -11 -885 -3 -4 4 194 7 441 7 247 0 446 -2 444 -4z"/>
<path d="M4675 2776 c-43 -18 -93 -79 -101 -121 -18 -98 22 -181 104 -217 141
-63 282 83 228 235 -18 50 -42 76 -91 98 -47 22 -98 23 -140 5z"/>
<path d="M7970 2772 c-109 -60 -134 -202 -51 -296 25 -28 86 -56 123 -56 45 1
110 32 136 65 44 56 52 148 17 216 -39 75 -153 111 -225 71z"/>
<path d="M8972 2708 l3 -73 64 2 c75 2 104 23 104 74 0 49 -31 69 -110 69
l-64 0 3 -72z"/>
<path d="M5617 2102 c-19 -21 -22 -54 -7 -83 13 -22 57 -26 85 -5 21 15 25 67
5 90 -17 22 -63 20 -83 -2z"/>
<path d="M7748 2109 c-12 -6 -18 -22 -18 -43 0 -59 59 -87 100 -46 54 54 -15
128 -82 89z"/>
<path d="M8370 2090 c0 -25 4 -30 24 -30 13 0 29 7 36 15 17 20 -3 45 -36 45
-20 0 -24 -5 -24 -30z"/>
</g>
</svg>
